# xmcd CD database file
#
# Track frame offsets:
#	150
#	20680
#	47743
#	66873
#	87482
#	110715
#	135277
#	161633
#	187227
#	216839
#	241736
#	266130
#	280768
#
# Disc length: 4118 seconds
#
# Revision: 1
# Processed by: cddbd v1.5.2PL0 Copyright (c) Steve Scherf et al.
# Submitted via: CDex 1.74
#
DISCID=c210140d
DTITLE=Cody McFadyen - Die Blutlinie CD6
DYEAR=2006
DGENRE=Hoerbuch
TTITLE0=601
TTITLE1=602
TTITLE2=603
TTITLE3=604
TTITLE4=605
TTITLE5=606
TTITLE6=607
TTITLE7=608
TTITLE8=609
TTITLE9=610
TTITLE10=611
TTITLE11=612
TTITLE12=613
EXTD=gelesen von Franziska Pigulla YEAR: 2006
EXTT0=
EXTT1=
EXTT2=
EXTT3=
EXTT4=
EXTT5=
EXTT6=
EXTT7=
EXTT8=
EXTT9=
EXTT10=
EXTT11=
EXTT12=
PLAYORDER=
